<?xml version="1.0" encoding="utf-8"?>
<!-- Generator: Adobe Illustrator 25.2.3, SVG Export Plug-In . SVG Version: 6.00 Build 0)  -->
<svg version="1.1" xmlns="http://www.w3.org/2000/svg" xmlns:xlink="http://www.w3.org/1999/xlink" x="0px" y="0px"
	 viewBox="0 0 1500 1500" style="enable-background:new 0 0 1500 1500;" xml:space="preserve">
<style type="text/css">
	.st0{fill:none;stroke:#94E09B;stroke-width:20;stroke-miterlimit:10;}
	.st1{fill:#94E09B;}
</style>
<g id="Layer_1">
</g>
<g id="Layer_3">
	<polyline class="st0" points="613.9,192.6 960.9,186.6 1261,415.7 1360.6,752.2 1232.9,1104.4 916.2,1283.6 561,1278.7 
		273.7,1065.3 185.5,704.3 318.7,358.1 613.9,192.6 	"/>
	<polyline class="st0" points="521.8,541.2 880.5,461.7 1059.4,739.9 844.3,1019.3 524.1,908.3 521.8,541.2 	"/>
	<line class="st0" x1="318.7" y1="358.1" x2="521.8" y2="541.2"/>
	<polyline class="st0" points="521.8,541.2 613.9,192.6 880.5,461.7 960.9,186.6 	"/>
	<polyline class="st0" points="880.5,461.7 1261,415.7 1059.4,739.9 1360.6,752.2 	"/>
	<line class="st0" x1="1232.9" y1="1104.4" x2="1059.4" y2="739.9"/>
	<line class="st0" x1="844.3" y1="1019.3" x2="1232.9" y2="1104.4"/>
	<polyline class="st0" points="844.3,1019.3 561,1278.7 524.6,896.7 273.7,1065.3 	"/>
	<line class="st0" x1="185.5" y1="704.3" x2="524.6" y2="896.7"/>
	<line class="st0" x1="185.5" y1="704.3" x2="521.8" y2="541.2"/>
	<line class="st0" x1="916.2" y1="1283.6" x2="844.3" y2="1019.3"/>
</g>
<g id="dots">
	<circle class="st1" cx="613.9" cy="192.6" r="34.6"/>
	<circle class="st1" cx="960.9" cy="186.6" r="34.6"/>
	<circle class="st1" cx="1261" cy="415.7" r="34.6"/>
	<circle class="st1" cx="1360.6" cy="752.2" r="34.6"/>
	<circle class="st1" cx="1232.9" cy="1104.4" r="34.6"/>
	<circle class="st1" cx="916.2" cy="1283.6" r="34.6"/>
	<circle class="st1" cx="561" cy="1278.7" r="34.6"/>
	<circle class="st1" cx="273.7" cy="1065.3" r="34.6"/>
	<circle class="st1" cx="185.5" cy="704.3" r="34.6"/>
	<circle class="st1" cx="318.7" cy="358.1" r="34.6"/>
	<circle class="st1" cx="521.8" cy="541.2" r="34.6"/>
	<circle class="st1" cx="880.5" cy="461.7" r="34.6"/>
	<circle class="st1" cx="1059.4" cy="739.9" r="34.6"/>
	<circle class="st1" cx="844.3" cy="1019.3" r="34.6"/>
	<circle class="st1" cx="524.6" cy="896.7" r="34.6"/>
</g>
</svg>
