<?xml version="1.0" encoding="utf-8"?>
<!-- Generator: Adobe Illustrator 25.2.3, SVG Export Plug-In . SVG Version: 6.00 Build 0)  -->
<svg version="1.1" xmlns="http://www.w3.org/2000/svg" xmlns:xlink="http://www.w3.org/1999/xlink" x="0px" y="0px"
	 viewBox="0 0 3232.4 1500" style="enable-background:new 0 0 3232.4 1500;" xml:space="preserve">
<style type="text/css">
	.st0{fill:#67BF6C;}
	.st1{fill:none;stroke:#FFFFFF;stroke-width:30;stroke-linecap:round;stroke-linejoin:round;stroke-miterlimit:10;}
	.st2{font-family:'Poppins-Medium';}
	.st3{font-size:448.8212px;}
	.st4{fill:#133313;}
	.st5{fill:#FFFFFF;}
</style>
<g id="Layer_3_1_">
	<circle class="st0" cx="814.6" cy="750" r="481.6"/>
</g>
<g id="Layer_1">
	<g id="Layer_1_2_">
	</g>
	<g id="Layer_3_3_">
		<polyline class="st1" points="804.4,422.6 1000.3,466.8 1137.5,636.8 1147.3,839.6 1027.2,1020.1 824.6,1077.4 625.6,1025.9 
			493.4,866.5 493.3,651.5 615.8,475.1 804.4,422.6 		"/>
		<polyline class="st1" points="704.8,605.9 917.4,610.5 979.7,791.4 820.5,919 655.7,812.6 704.8,605.9 		"/>
		<line class="st1" x1="615.8" y1="475.1" x2="704.8" y2="605.9"/>
		<polyline class="st1" points="704.8,605.9 804.4,422.6 917.4,610.5 1000.3,466.8 		"/>
		<line class="st1" x1="1027.2" y1="1020.1" x2="979.7" y2="791.4"/>
		<line class="st1" x1="820.5" y1="919" x2="1027.2" y2="1020.1"/>
		<polyline class="st1" points="820.5,919 625.6,1025.9 657.6,806.2 493.4,866.5 		"/>
		<polyline class="st1" points="493.3,651.5 657.6,806.2 814.6,748.2 		"/>
		<polyline class="st1" points="493.3,651.5 704.8,605.9 814.6,748.2 917.4,610.5 1137.5,636.8 979.7,791.4 1147.3,839.6 		"/>
		<polyline class="st1" points="824.6,1077.4 820.5,919 814.6,748.2 979.7,791.4 		"/>
	</g>
</g>
<g id="Texto">
	<text transform="matrix(1 0 0 1 1445.6498 642.7661)" class="st0 st2 st3">Green</text>
	<g>
		<text transform="matrix(1 0 0 1 1455.9691 1098.476)" class="st4 st2 st3">Points</text>
	</g>
</g>
<g id="Circulos">
	<circle class="st5" cx="804.4" cy="422.6" r="20"/>
	<circle class="st5" cx="1000.3" cy="466.8" r="20"/>
	<circle class="st5" cx="1137.5" cy="636.8" r="20"/>
	<circle class="st5" cx="1147.3" cy="839.6" r="20"/>
	<circle class="st5" cx="1027.2" cy="1020.1" r="20"/>
	<circle class="st5" cx="824.6" cy="1077.4" r="20"/>
	<circle class="st5" cx="625.6" cy="1025.9" r="20"/>
	<circle class="st5" cx="493.4" cy="866.5" r="20"/>
	<circle class="st5" cx="493.3" cy="651.5" r="20"/>
	<circle class="st5" cx="615.8" cy="475.1" r="20"/>
	<circle class="st5" cx="704.8" cy="605.9" r="20"/>
	<circle class="st5" cx="917.4" cy="610.5" r="20"/>
	<circle class="st5" cx="814.6" cy="748.2" r="20"/>
	<circle class="st5" cx="979.7" cy="791.4" r="20"/>
	<circle class="st5" cx="820.5" cy="919" r="20"/>
	<ellipse class="st5" cx="657.6" cy="806.2" rx="20" ry="20"/>
</g>
</svg>
